<svg width="161" height="103" viewBox="0 0 161 103" fill="none" xmlns="http://www.w3.org/2000/svg">
<path d="M103.837 25.9833C93.4377 4.49532 69.3112 15.9766 58.548 24.4033C57.8491 24.6666 60.4872 21.2857 65.2576 17.2653C73.2252 10.5503 83.7088 9.39331 83.7088 9.39331C103.837 6.54932 110.547 19.8818 113.063 25.1933C116.418 32.2753 114.741 47.1816 113.063 54.0282C111.721 63.1922 102.999 75.4146 96.7086 82.8631C89.37 91.5531 79.3756 97.8731 74.9025 99.8481C50.0772 109.012 39.957 96.0298 38 88.3931C50.4127 105.457 68.6123 96.6601 76.9993 91.5531C86.2249 85.9354 98.1064 69.8282 101.741 62.3232C109.792 46.5232 106.493 31.5133 103.837 25.9833Z" fill="white"/>
<path d="M103.837 25.9833C93.4377 4.49532 69.3112 15.9766 58.548 24.4033C57.8491 24.6666 60.4872 21.2857 65.2576 17.2653C73.2252 10.5503 83.7088 9.39331 83.7088 9.39331C103.837 6.54932 110.547 19.8818 113.063 25.1933C116.418 32.2753 114.741 47.1816 113.063 54.0282C111.721 63.1922 102.999 75.4146 96.7086 82.8631C89.37 91.5531 79.3756 97.8731 74.9025 99.8481C50.0772 109.012 39.957 96.0298 38 88.3931C50.4127 105.457 68.6123 96.6601 76.9993 91.5531C86.2249 85.9354 98.1064 69.8282 101.741 62.3232C109.792 46.5232 106.493 31.5133 103.837 25.9833Z" stroke="white"/>
<path d="M62.5461 79L50.5941 58.48H42.6741V79H36.1221V28.816H52.3221C56.1141 28.816 59.3061 29.464 61.8981 30.76C64.5381 32.056 66.5061 33.808 67.8021 36.016C69.0981 38.224 69.7461 40.744 69.7461 43.576C69.7461 47.032 68.7381 50.08 66.7221 52.72C64.7541 55.36 61.7781 57.112 57.7941 57.976L70.3941 79H62.5461ZM42.6741 53.224H52.3221C55.8741 53.224 58.5381 52.36 60.3141 50.632C62.0901 48.856 62.9781 46.504 62.9781 43.576C62.9781 40.6 62.0901 38.296 60.3141 36.664C58.5861 35.032 55.9221 34.216 52.3221 34.216H42.6741V53.224ZM117.943 43.36C116.551 40.432 114.535 38.176 111.895 36.592C109.255 34.96 106.183 34.144 102.679 34.144C99.1748 34.144 96.0068 34.96 93.1748 36.592C90.3908 38.176 88.1828 40.48 86.5508 43.504C84.9668 46.48 84.1748 49.936 84.1748 53.872C84.1748 57.808 84.9668 61.264 86.5508 64.24C88.1828 67.216 90.3908 69.52 93.1748 71.152C96.0068 72.736 99.1748 73.528 102.679 73.528C107.575 73.528 111.607 72.064 114.775 69.136C117.943 66.208 119.791 62.248 120.319 57.256H100.303V51.928H127.303V56.968C126.919 61.096 125.623 64.888 123.415 68.344C121.207 71.752 118.303 74.464 114.703 76.48C111.103 78.448 107.095 79.432 102.679 79.432C98.0228 79.432 93.7748 78.352 89.9348 76.192C86.0948 73.984 83.0468 70.936 80.7908 67.048C78.5828 63.16 77.4788 58.768 77.4788 53.872C77.4788 48.976 78.5828 44.584 80.7908 40.696C83.0468 36.76 86.0948 33.712 89.9348 31.552C93.7748 29.344 98.0228 28.24 102.679 28.24C108.007 28.24 112.711 29.56 116.791 32.2C120.919 34.84 123.919 38.56 125.791 43.36H117.943Z" fill="white"/>
</svg>
